<svg width="256" height="256" viewBox="0 0 256 256" fill="none" xmlns="http://www.w3.org/2000/svg">
<g clip-path="url(#clip0_95_5)">
<path d="M196 0H60C26.8629 0 0 26.8629 0 60V196C0 229.137 26.8629 256 60 256H196C229.137 256 256 229.137 256 196V60C256 26.8629 229.137 0 196 0Z" fill="#0C36DC"/>
<path d="M103.964 224.92V206.2C108.124 206.2 111.14 205.472 113.012 204.016C114.884 202.456 115.82 199.492 115.82 195.124V107.92H137.192L137.348 196.06C137.348 201.676 136.724 206.356 135.476 210.1C134.332 213.844 132.408 216.808 129.704 218.992C127.104 221.176 123.672 222.684 119.408 223.516C115.248 224.452 110.1 224.92 103.964 224.92ZM192.222 124.768C180.886 124.768 175.218 128.512 175.218 136C175.218 139.328 176.622 141.876 179.43 143.644C180.886 144.476 183.226 145.568 186.45 146.92C189.674 148.168 193.938 149.624 199.242 151.288C204.442 152.952 208.81 154.668 212.346 156.436C215.882 158.204 218.742 160.284 220.926 162.676C223.11 164.964 224.67 167.668 225.606 170.788C226.646 173.908 227.166 177.652 227.166 182.02C227.166 187.636 226.282 192.576 224.514 196.84C222.746 201 220.25 204.484 217.026 207.292C213.802 210.1 209.954 212.232 205.482 213.688C201.01 215.144 196.018 215.872 190.506 215.872C182.394 215.872 172.462 214.624 160.71 212.128L155.094 211.036L157.278 194.344C171.214 196.216 181.874 197.152 189.258 197.152C200.282 197.152 205.794 192.576 205.794 183.424C205.794 180.096 204.546 177.496 202.05 175.624C199.346 173.752 194.25 171.724 186.762 169.54C180.73 167.772 175.582 165.952 171.318 164.08C167.158 162.104 163.778 159.868 161.178 157.372C158.578 154.772 156.706 151.86 155.562 148.636C154.418 145.412 153.846 141.72 153.846 137.56C153.846 126.848 157.018 118.944 163.362 113.848C169.81 108.648 178.702 106.048 190.038 106.048C193.886 106.048 198.254 106.308 203.142 106.828C208.03 107.348 213.438 108.128 219.366 109.168L224.982 110.26L223.266 127.264C215.882 126.432 209.59 125.808 204.39 125.392C199.294 124.976 195.238 124.768 192.222 124.768Z" fill="white"/>
</g>
<defs>
<clipPath id="clip0_95_5">
<rect width="256" height="256" fill="white"/>
</clipPath>
</defs>
</svg>
