<svg width="256" height="256" viewBox="0 0 256 256" fill="none" xmlns="http://www.w3.org/2000/svg">
<g clip-path="url(#clip0_42_8)">
<path d="M196 0H60C26.8629 0 0 26.8629 0 60V196C0 229.137 26.8629 256 60 256H196C229.137 256 256 229.137 256 196V60C256 26.8629 229.137 0 196 0Z" fill="#0C36DC"/>
<path d="M212.971 79.9584C212.576 85.8682 211.161 95.0329 207.929 107.142C200.922 133.372 177.861 183.919 134.555 172.29C91.2494 160.64 96.4813 105.306 103.488 79.0829C106.727 66.9669 110.065 58.3247 112.677 53.001C115.634 46.9783 118.634 50.9605 125.457 56.6937C130.274 60.7395 142.428 69.3393 160.743 74.2605C179.058 79.1818 193.881 77.8332 200.056 76.7459C208.823 75.1996 213.414 73.2579 212.971 79.9584ZM143.914 107.234C143.914 107.234 143.019 94.3903 131.429 91.093C119.852 87.7957 113.029 98.4361 113.029 98.4361L143.914 107.234ZM172.488 139.282L117.782 123.946C117.782 123.946 120.923 140.228 141.287 146.208C161.44 152.111 172.488 139.289 172.488 139.282ZM191.508 121.56C191.508 121.56 190.592 108.723 179.023 105.419C167.447 102.108 160.63 112.748 160.63 112.748L191.508 121.56ZM104.347 155.987C70.9062 165.018 53.2176 126.163 47.866 105.998C45.3874 96.685 44.31 89.6315 44.0213 85.0844C43.6903 79.9302 47.2252 81.4129 53.9852 82.585C58.7523 83.4181 70.1809 84.4278 84.3204 80.608C90.2171 79.0195 95.9115 76.7546 101.291 73.8581C100.882 75.249 100.488 76.6823 100.094 78.165C97.0446 89.5891 94.2702 106.796 95.6433 123.537C81.7291 128.705 79.68 140.644 79.68 140.644L97.453 135.596C99.0515 142.671 101.678 149.626 105.551 155.634C105.151 155.755 104.75 155.878 104.347 155.987ZM74.8565 111.519C83.7641 109.168 84.4542 100.004 84.4542 100.004L60.6958 106.273C60.6958 106.273 65.9489 113.871 74.8565 111.519Z" fill="white"/>
<path d="M46.96 210.08H42.48V218H36.96V190.8H46.96C53.4133 190.8 56.64 193.947 56.64 200.24C56.64 203.44 55.8267 205.88 54.2 207.56C52.5733 209.24 50.16 210.08 46.96 210.08ZM42.48 195.52V205.36H46.92C49.6667 205.36 51.04 203.653 51.04 200.24C51.04 198.56 50.7067 197.36 50.04 196.64C49.4 195.893 48.36 195.52 46.92 195.52H42.48ZM65.6347 218H60.2747V190H65.6347V218ZM86.1359 204.24V212.56C86.1893 213.2 86.2959 213.653 86.4559 213.92C86.6159 214.16 86.9493 214.333 87.4559 214.44L87.2959 218.48C85.9359 218.48 84.8426 218.387 84.0159 218.2C83.2159 218.013 82.4026 217.64 81.5759 217.08C79.6293 218.013 77.6693 218.48 75.6959 218.48C71.5626 218.48 69.4959 216.293 69.4959 211.92C69.4959 209.787 70.0693 208.28 71.2159 207.4C72.3626 206.493 74.1226 205.96 76.4959 205.8L80.7759 205.48V204.24C80.7759 203.413 80.5893 202.853 80.2159 202.56C79.8426 202.24 79.2426 202.08 78.4159 202.08L70.8959 202.4L70.7359 198.68C73.6159 197.907 76.3359 197.52 78.8959 197.52C81.4826 197.52 83.3359 198.053 84.4559 199.12C85.5759 200.187 86.1359 201.893 86.1359 204.24ZM80.7759 209.2L77.1359 209.52C75.6426 209.653 74.8959 210.453 74.8959 211.92C74.8959 213.387 75.5493 214.12 76.8559 214.12C77.8693 214.12 78.9759 213.96 80.1759 213.64L80.7759 213.48V209.2ZM94.3256 218L89.4056 198H94.6856L98.3256 213.44H99.2456L102.886 198H108.166L101.126 226.4H95.8856L98.0856 218H94.3256ZM113.526 218L109.726 198H115.006L117.446 213.44H118.406L121.446 198.4H126.966L130.006 213.44H130.966L133.406 198H138.686L134.886 218H126.486L124.206 205.76L121.926 218H113.526ZM147.504 218H142.144V198H147.464V200.12C149.757 198.787 151.891 197.92 153.864 197.52V202.92C152.771 203.133 151.757 203.36 150.824 203.6C149.917 203.84 149.077 204.08 148.304 204.32L147.504 204.6V218ZM162.387 218H157.027V198H162.387V218ZM162.387 195.44H157.027V190H162.387V195.44ZM185.459 220.48C185.459 222.773 184.579 224.467 182.819 225.56C181.086 226.653 178.713 227.2 175.699 227.2C172.713 227.2 170.406 226.8 168.779 226C167.153 225.2 166.339 223.747 166.339 221.64C166.339 219.96 167.299 218.373 169.219 216.88C168.233 216.213 167.739 215.2 167.739 213.84C167.739 213.307 168.139 212.427 168.939 211.2L169.299 210.64C167.486 209.307 166.579 207.373 166.579 204.84C166.579 202.307 167.339 200.467 168.859 199.32C170.406 198.173 172.446 197.6 174.979 197.6C176.179 197.6 177.313 197.733 178.379 198L179.019 198.12L185.459 197.92V202.2L182.459 201.96C183.046 202.867 183.339 203.773 183.339 204.68C183.339 206.013 183.166 207.133 182.819 208.04C182.499 208.92 181.993 209.64 181.299 210.2C180.606 210.733 179.726 211.12 178.659 211.36C177.593 211.6 176.339 211.72 174.899 211.72C174.233 211.72 173.686 211.667 173.259 211.56C172.993 212.2 172.859 212.76 172.859 213.24C172.859 213.693 173.086 214 173.539 214.16C173.939 214.293 175.006 214.387 176.739 214.44C178.419 214.44 179.819 214.547 180.939 214.76C182.059 214.973 182.953 215.32 183.619 215.8C184.286 216.253 184.753 216.867 185.019 217.64C185.313 218.387 185.459 219.333 185.459 220.48ZM171.939 204.68C171.939 206.653 172.966 207.64 175.019 207.64C177.046 207.64 178.059 206.653 178.059 204.68C178.059 202.733 177.046 201.76 175.019 201.76C172.966 201.76 171.939 202.733 171.939 204.68ZM171.619 221.08C171.619 222.227 173.033 222.8 175.859 222.8C178.659 222.8 180.059 222.133 180.059 220.8C180.059 220.08 179.819 219.613 179.339 219.4C178.939 219.24 177.926 219.133 176.299 219.08L172.699 218.8C171.979 219.52 171.619 220.28 171.619 221.08ZM194.067 202.96V218H188.707V190H194.067V198.96C195.907 198 197.56 197.52 199.027 197.52C200.36 197.52 201.467 197.72 202.347 198.12C203.253 198.493 203.973 199.08 204.507 199.88C205.067 200.68 205.467 201.68 205.707 202.88C205.947 204.08 206.067 205.507 206.067 207.16V218H200.707V207.28C200.707 205.6 200.507 204.36 200.107 203.56C199.707 202.733 198.907 202.32 197.707 202.32C196.667 202.32 195.627 202.48 194.587 202.8L194.067 202.96ZM221.896 198V202.56H216.976V210.76C216.976 211.16 216.976 211.507 216.976 211.8C217.003 212.067 217.029 212.28 217.056 212.44C217.109 212.787 217.256 213.08 217.496 213.32C217.736 213.56 218.123 213.68 218.656 213.68L221.696 213.6L221.936 217.88C220.149 218.28 218.789 218.48 217.856 218.48C216.656 218.48 215.656 218.347 214.856 218.08C214.056 217.84 213.416 217.427 212.936 216.84C212.456 216.253 212.109 215.48 211.896 214.52C211.709 213.533 211.616 212.32 211.616 210.88V202.56H209.256V198H211.616V192.44H216.976V198H221.896Z" fill="white"/>
</g>
<defs>
<clipPath id="clip0_42_8">
<rect width="256" height="256" fill="white"/>
</clipPath>
</defs>
</svg>
