<svg width="256" height="256" viewBox="0 0 256 256" fill="none" xmlns="http://www.w3.org/2000/svg">
<g clip-path="url(#clip0_86_2)">
<path d="M196 0H60C26.8629 0 0 26.8629 0 60V196C0 229.137 26.8629 256 60 256H196C229.137 256 256 229.137 256 196V60C256 26.8629 229.137 0 196 0Z" fill="#0C36DC"/>
<path d="M94.42 126.952H66.028V107.92H144.028V126.952H115.948V214H94.42V126.952ZM190.261 124.768C178.925 124.768 173.257 128.512 173.257 136C173.257 139.328 174.661 141.876 177.469 143.644C178.925 144.476 181.265 145.568 184.489 146.92C187.713 148.168 191.977 149.624 197.281 151.288C202.481 152.952 206.849 154.668 210.385 156.436C213.921 158.204 216.781 160.284 218.965 162.676C221.149 164.964 222.709 167.668 223.645 170.788C224.685 173.908 225.205 177.652 225.205 182.02C225.205 187.636 224.321 192.576 222.553 196.84C220.785 201 218.289 204.484 215.065 207.292C211.841 210.1 207.993 212.232 203.521 213.688C199.049 215.144 194.057 215.872 188.545 215.872C180.433 215.872 170.501 214.624 158.749 212.128L153.133 211.036L155.317 194.344C169.253 196.216 179.913 197.152 187.297 197.152C198.321 197.152 203.833 192.576 203.833 183.424C203.833 180.096 202.585 177.496 200.089 175.624C197.385 173.752 192.289 171.724 184.801 169.54C178.769 167.772 173.621 165.952 169.357 164.08C165.197 162.104 161.817 159.868 159.217 157.372C156.617 154.772 154.745 151.86 153.601 148.636C152.457 145.412 151.885 141.72 151.885 137.56C151.885 126.848 155.057 118.944 161.401 113.848C167.849 108.648 176.741 106.048 188.077 106.048C191.925 106.048 196.293 106.308 201.181 106.828C206.069 107.348 211.477 108.128 217.405 109.168L223.021 110.26L221.305 127.264C213.921 126.432 207.629 125.808 202.429 125.392C197.333 124.976 193.277 124.768 190.261 124.768Z" fill="white"/>
</g>
<defs>
<clipPath id="clip0_86_2">
<rect width="256" height="256" fill="white"/>
</clipPath>
</defs>
</svg>
